<svg width="194" height="75" viewBox="0 0 194 75" fill="none" xmlns="http://www.w3.org/2000/svg">
<path fill-rule="evenodd" clip-rule="evenodd" d="M0 0H2.31864V75H0V0ZM7.51308 0H9.83171V75H7.51308V0ZM12.1503 0H17.3437V75H12.1503V0ZM19.6623 0H24.8556V75H19.6623V0ZM27.1742 0H29.4928V75H27.1742V0ZM32.9021 0H35.2208V75H32.9021V0ZM37.5394 0H42.7328V75H37.5394V0ZM45.0513 0H47.37V75H45.0513V0ZM52.5632 0H54.8819V75H52.5632V0ZM57.2005 0H62.3948V75H57.2005V0ZM65.8031 0H70.9965V75H65.8031V0ZM76.1908 0H78.5095V75H76.1908V0ZM80.8281 0H86.0215V75H80.8281V0ZM88.34 0H90.6586V75H88.34V0ZM92.9773 0H95.2959V75H92.9773V0ZM98.7041 0H101.023V75H98.7041V0ZM103.341 0H105.66V75H103.341V0ZM107.979 0H113.173V75H107.979V0ZM115.492 0H120.685V75H115.492V0ZM125.879 0H128.198V75H125.879V0ZM131.606 0H136.8V75H131.606V0ZM139.118 0H141.437V75H139.118V0ZM143.755 0H148.95V75H143.755V0ZM154.143 0H156.462V75H154.143V0ZM158.78 0H161.099V75H158.78V0ZM164.507 0H166.826V75H164.507V0ZM172.02 0H174.339V75H172.02V0ZM176.658 0H181.851V75H176.658V0ZM184.169 0H189.363V75H184.169V0ZM191.681 0H194V75H191.681V0Z" fill="white"/>
</svg>
