<svg width="365" height="120" viewBox="0 0 365 120" fill="none" xmlns="http://www.w3.org/2000/svg">
<mask id="mask0_214_30546" style="mask-type:alpha" maskUnits="userSpaceOnUse" x="73" y="40" width="73" height="40">
<path d="M73 40H146V80H73V40Z" fill="#D9D9D9"/>
</mask>
<g mask="url(#mask0_214_30546)">
<path fill-rule="evenodd" clip-rule="evenodd" d="M174.24 54.3456L174.693 55.0161C177.929 59.8067 182.433 68.1745 184.737 72.6547L185.231 73.6147L171.221 79.5137L170.798 78.6879C170.462 78.0328 170.112 77.3443 169.749 76.6312C167.184 71.5894 163.995 65.3215 161.01 61.0092L160.298 59.9814L174.24 54.3456ZM189.979 48.2034L190.433 48.8673C193.794 53.7791 198.425 62.013 200.614 66.3928L201.09 67.3438L187.206 73.252L186.789 72.3984C184.238 67.1685 180.17 59.6733 176.761 54.8752L176.028 53.8433L189.979 48.2034ZM94.8507 118.065L94.8517 118.062C100.585 103.284 105.166 86.0962 106.692 69.0548L106.792 67.9351L131.596 73.1202L131.307 74.1507C130.161 78.2236 128.378 85.8694 127.873 88.7713L127.871 88.7835C126.067 98.4476 121.315 115.266 117.336 126.563C112.827 139.445 104.85 154.886 98.3974 164.178L97.935 164.844L74.1075 154.812L74.8939 153.784C82.7698 143.495 90.4037 129.627 94.8507 118.065ZM116.392 126.232C120.36 114.968 125.096 98.2 126.888 88.6C127.362 85.8741 128.933 79.088 130.078 74.8461C130.17 74.5066 130.259 74.1835 130.344 73.88L107.688 69.144C107.658 69.478 107.627 69.812 107.595 70.1461C105.972 86.9681 101.432 103.865 95.784 118.424C91.4214 129.767 84.0244 143.294 76.3114 153.569C76.1038 153.846 75.896 154.12 75.688 154.392L97.576 163.608C103.976 154.392 111.912 139.032 116.392 126.232ZM158.074 117.353L158.072 117.346C153.349 103.815 144.922 84.2837 139.578 74.4868L138.999 73.4254L161.679 66.1455L162.073 66.8786C167.604 77.1697 176.709 98.0764 181.197 109.745C185.434 120.787 192.229 141.685 195.822 155.028L196.068 155.945L170.955 164.131L170.713 163.061C167.003 146.689 163.046 131.248 158.074 117.353ZM173.864 55.576C176.862 60.0135 180.984 67.5974 183.387 72.221C183.549 72.532 183.703 72.8296 183.848 73.112L171.688 78.232C171.355 77.5815 171.006 76.8957 170.644 76.1837C168.245 71.4675 165.262 65.6047 162.405 61.287C162.213 60.9974 162.022 60.7148 161.832 60.44L173.864 55.576ZM189.608 49.432C192.72 53.9803 196.951 61.4387 199.267 65.9461C199.427 66.259 199.579 66.5576 199.72 66.84L187.688 71.96C185.271 67.0059 181.486 59.9986 178.162 55.1376C177.965 54.8492 177.77 54.5684 177.576 54.296L189.608 49.432ZM159.016 117.016C154.419 103.847 146.326 85.0118 140.939 74.9033C140.775 74.5967 140.614 74.2981 140.456 74.008L161.192 67.352C166.696 77.592 175.784 98.456 180.264 110.104C184.488 121.112 191.272 141.976 194.856 155.288L171.688 162.84C171.614 162.513 171.54 162.187 171.466 161.861C167.817 145.839 163.908 130.69 159.016 117.016Z" fill="white"/>
</g>
<mask id="mask1_214_30546" style="mask-type:alpha" maskUnits="userSpaceOnUse" x="73" y="0" width="73" height="40">
<path d="M73 0H146V40H73V0Z" fill="#D9D9D9"/>
</mask>
<g mask="url(#mask1_214_30546)">
<path fill-rule="evenodd" clip-rule="evenodd" d="M135.262 67.0358C134.933 67.1203 134.603 67.2043 134.272 67.288L143.872 86.872C158.349 82.6961 173.363 76.4346 186.136 70.0385C186.471 69.8708 186.804 69.703 187.136 69.5351V107.096C187.136 112.716 186.708 120.691 186.243 124.656C186.199 125.026 186.156 125.361 186.112 125.656H210.688C210.603 125.358 210.523 125.023 210.448 124.656C209.623 120.62 209.408 112.728 209.408 107.096V56.6456C209.741 56.4245 210.075 56.202 210.408 55.9782C221.988 48.2058 233.673 38.8654 242.867 29.9699C243.108 29.737 243.347 29.5044 243.584 29.2721C243.584 29.2721 243.584 29.2721 243.584 29.2721L226.816 13.272C226.606 13.525 226.391 13.7809 226.172 14.0393C217.941 23.7152 202.8 37.0304 190.208 44.76C176.076 53.3403 158.087 61.1743 135.262 67.0358ZM189.687 43.9062C175.445 52.5532 157.235 60.4527 134.027 66.3185L132.831 66.6207L143.343 88.0653L144.149 87.8328C158.522 83.6867 173.413 77.4986 186.136 71.1563V107.096C186.136 113.218 185.625 122.123 185.123 125.509L184.953 126.656H212.014L211.65 125.381C211.172 123.711 210.855 120.712 210.662 117.28C210.472 113.881 210.408 110.157 210.408 107.096V57.1814C222.524 49.0997 234.795 39.2755 244.284 29.9866L245.023 29.2628L226.73 11.8082L226.046 12.6338C218.053 22.2768 202.521 36.0273 189.687 43.9062Z" fill="white"/>
<path fill-rule="evenodd" clip-rule="evenodd" d="M101.24 14.3456L101.693 15.0161C104.929 19.8067 109.433 28.1745 111.737 32.6547L112.231 33.6147L98.2209 39.5137L97.798 38.6879C97.4625 38.0328 97.1121 37.3443 96.7494 36.6312C94.1842 31.5894 90.9952 25.3215 88.0098 21.0092L87.2982 19.9814L101.24 14.3456ZM116.979 8.20338L117.433 8.86731C120.794 13.7791 125.425 22.013 127.614 26.3928L128.09 27.3438L114.206 33.252L113.789 32.3984C111.238 27.1685 107.17 19.6733 103.761 14.8752L103.028 13.8433L116.979 8.20338ZM21.8507 78.065L21.8517 78.0623C27.5847 63.284 32.1659 46.0962 33.692 29.0548L33.7923 27.9351L58.5965 33.1202L58.3067 34.1507C57.1612 38.2236 55.3779 45.8694 54.8732 48.7713L54.8711 48.7835C53.0671 58.4476 48.3151 75.2662 44.3355 86.5633C39.8267 99.4453 31.8505 114.886 25.3974 124.178L24.935 124.844L1.10753 114.812L1.89392 113.784C9.76983 103.495 17.4037 89.627 21.8507 78.065ZM43.392 86.232C47.36 74.968 52.096 58.2 53.888 48.6C54.3621 45.8741 55.9335 39.088 57.0782 34.8461C57.1698 34.5066 57.2587 34.1835 57.344 33.88L34.688 29.144C34.6581 29.478 34.627 29.812 34.5948 30.1461C32.9721 46.9681 28.4318 63.8651 22.784 78.424C18.4214 89.7667 11.0244 103.294 3.31143 113.569C3.10383 113.846 2.896 114.12 2.688 114.392L24.576 123.608C30.976 114.392 38.912 99.032 43.392 86.232ZM85.0745 77.3529L85.0718 77.3456C80.3491 63.8153 71.9218 44.2837 66.5781 34.4868L65.9991 33.4254L88.6788 26.1455L89.0728 26.8786C94.6043 37.1697 103.709 58.0764 108.197 69.745C112.434 80.7873 119.229 101.685 122.822 115.028L123.068 115.945L97.9551 124.131L97.7127 123.061C94.0034 106.689 90.0459 91.2475 85.0745 77.3529ZM100.864 15.576C103.862 20.0135 107.984 27.5974 110.387 32.221C110.549 32.532 110.703 32.8296 110.848 33.112L98.688 38.232C98.3548 37.5815 98.0059 36.8957 97.6437 36.1837C95.2447 31.4675 92.2623 25.6047 89.4049 21.287C89.2133 20.9974 89.0223 20.7148 88.832 20.44L100.864 15.576ZM116.608 9.43199C119.72 13.9803 123.951 21.4387 126.267 25.9461C126.427 26.259 126.579 26.5576 126.72 26.84L114.688 31.96C112.271 27.0059 108.486 19.9986 105.162 15.1376C104.965 14.8492 104.77 14.5684 104.576 14.296L116.608 9.43199ZM86.016 77.016C81.4194 63.8474 73.3262 45.0118 67.9386 34.9033C67.7752 34.5967 67.6143 34.2981 67.456 34.008L88.192 27.352C93.696 37.592 102.784 58.456 107.264 70.104C111.488 81.112 118.272 101.976 121.856 115.288L98.688 122.84C98.614 122.513 98.5398 122.187 98.4656 121.861C94.8173 105.839 90.9084 90.6897 86.016 77.016Z" fill="white"/>
</g>
<mask id="mask2_214_30546" style="mask-type:alpha" maskUnits="userSpaceOnUse" x="146" y="0" width="73" height="40">
<path d="M146 0H219V40H146V0Z" fill="#D9D9D9"/>
</mask>
<g mask="url(#mask2_214_30546)">
<path fill-rule="evenodd" clip-rule="evenodd" d="M135.262 67.0358C134.933 67.1203 134.603 67.2043 134.272 67.288L143.872 86.872C158.349 82.6961 173.363 76.4346 186.136 70.0385C186.471 69.8708 186.804 69.703 187.136 69.5351V107.096C187.136 112.716 186.708 120.691 186.243 124.656C186.199 125.026 186.156 125.361 186.112 125.656H210.688C210.603 125.358 210.523 125.023 210.448 124.656C209.623 120.62 209.408 112.728 209.408 107.096V56.6456C209.741 56.4245 210.075 56.202 210.408 55.9782C221.988 48.2058 233.673 38.8654 242.867 29.9699C243.108 29.737 243.347 29.5044 243.584 29.2721C243.584 29.2721 243.584 29.2721 243.584 29.2721L226.816 13.272C226.606 13.525 226.391 13.7809 226.172 14.0393C217.941 23.7152 202.8 37.0304 190.208 44.76C176.076 53.3403 158.087 61.1743 135.262 67.0358ZM189.687 43.9062C175.445 52.5532 157.235 60.4527 134.027 66.3185L132.831 66.6207L143.343 88.0653L144.149 87.8328C158.522 83.6867 173.413 77.4986 186.136 71.1563V107.096C186.136 113.218 185.625 122.123 185.123 125.509L184.953 126.656H212.014L211.65 125.381C211.172 123.711 210.855 120.712 210.662 117.28C210.472 113.881 210.408 110.157 210.408 107.096V57.1814C222.524 49.0997 234.795 39.2755 244.284 29.9866L245.023 29.2628L226.73 11.8082L226.046 12.6338C218.053 22.2768 202.521 36.0273 189.687 43.9062Z" fill="white"/>
</g>
<mask id="mask3_214_30546" style="mask-type:alpha" maskUnits="userSpaceOnUse" x="219" y="0" width="73" height="40">
<path d="M219 0H292V40H219V0Z" fill="#D9D9D9"/>
</mask>
<g mask="url(#mask3_214_30546)">
<path fill-rule="evenodd" clip-rule="evenodd" d="M294.528 33.112V106.2C294.528 111.14 293.961 119.028 293.147 124.528C293.096 124.871 293.045 125.205 292.992 125.528H317.312C317.276 125.208 317.24 124.874 317.204 124.528C316.589 118.663 315.904 109.464 315.904 106.2V73.3604C316.235 73.4767 316.568 73.5943 316.904 73.7131C329.99 78.344 346.518 84.8174 359.042 91.1524C359.342 91.3044 359.64 91.4562 359.936 91.608L368.768 69.976C358.2 64.8069 334.128 56.0298 316.904 50.9531C316.568 50.854 316.235 50.7564 315.904 50.6602V33.112C315.904 28.0206 316.431 23.2808 316.903 19.0383C316.962 18.5083 317.021 17.9861 317.077 17.472C317.113 17.1352 317.149 16.8018 317.184 16.472L292.992 16.472C293.061 16.7976 293.127 17.1313 293.191 17.472C294.082 22.2203 294.528 28.3348 294.528 33.112ZM316.904 49.9107V33.112C316.904 28.0814 317.424 23.4058 317.896 19.1644C317.994 18.2828 318.09 17.42 318.179 16.5767L318.295 15.472L291.76 15.472L292.013 16.678C293.019 21.4548 293.528 28.038 293.528 33.112V106.2C293.528 111.398 292.892 119.92 292.005 125.367L291.816 126.528H318.429L318.306 125.418C317.667 119.666 316.904 109.599 316.904 106.2V74.774C330.229 79.5004 347.016 86.1005 359.479 92.4977L360.45 92.9956L370.047 69.4885L369.207 69.0777C358.517 63.8488 334.187 54.9866 316.904 49.9107Z" fill="white"/>
<path fill-rule="evenodd" clip-rule="evenodd" d="M135.262 67.0358C134.933 67.1203 134.603 67.2043 134.272 67.288L143.872 86.872C158.349 82.6961 173.363 76.4346 186.136 70.0385C186.471 69.8708 186.804 69.703 187.136 69.5351V107.096C187.136 112.716 186.708 120.691 186.243 124.656C186.199 125.026 186.156 125.361 186.112 125.656H210.688C210.603 125.358 210.523 125.023 210.448 124.656C209.623 120.62 209.408 112.728 209.408 107.096V56.6456C209.741 56.4245 210.075 56.202 210.408 55.9782C221.988 48.2058 233.673 38.8654 242.867 29.9699C243.108 29.737 243.347 29.5044 243.584 29.2721C243.584 29.2721 243.584 29.2721 243.584 29.2721L226.816 13.272C226.606 13.525 226.391 13.7809 226.172 14.0393C217.941 23.7152 202.8 37.0304 190.208 44.76C176.076 53.3403 158.087 61.1743 135.262 67.0358ZM189.687 43.9062C175.445 52.5532 157.235 60.4527 134.027 66.3185L132.831 66.6207L143.343 88.0653L144.149 87.8328C158.522 83.6867 173.413 77.4986 186.136 71.1563V107.096C186.136 113.218 185.625 122.123 185.123 125.509L184.953 126.656H212.014L211.65 125.381C211.172 123.711 210.855 120.712 210.662 117.28C210.472 113.881 210.408 110.157 210.408 107.096V57.1814C222.524 49.0997 234.795 39.2755 244.284 29.9866L245.023 29.2628L226.73 11.8082L226.046 12.6338C218.053 22.2768 202.521 36.0273 189.687 43.9062Z" fill="white"/>
</g>
<mask id="mask4_214_30546" style="mask-type:alpha" maskUnits="userSpaceOnUse" x="219" y="80" width="73" height="40">
<path d="M219 80H292V120H219V80Z" fill="#D9D9D9"/>
</mask>
<g mask="url(#mask4_214_30546)">
<path fill-rule="evenodd" clip-rule="evenodd" d="M221.528 113.112L221.528 186.2C221.528 191.14 220.961 199.028 220.147 204.528C220.096 204.871 220.045 205.205 219.992 205.528H244.312C244.276 205.208 244.24 204.874 244.204 204.528C243.589 198.663 242.904 189.464 242.904 186.2V153.36C243.235 153.477 243.568 153.594 243.904 153.713C256.99 158.344 273.518 164.817 286.042 171.152C286.342 171.304 286.64 171.456 286.936 171.608L295.768 149.976C285.2 144.807 261.128 136.03 243.904 130.953C243.568 130.854 243.235 130.756 242.904 130.66V113.112C242.904 108.021 243.431 103.281 243.903 99.0383C243.962 98.5083 244.021 97.9861 244.077 97.472C244.113 97.1352 244.149 96.8018 244.184 96.472H219.992C220.061 96.7976 220.127 97.1313 220.191 97.472C221.082 102.22 221.528 108.335 221.528 113.112ZM243.904 129.911V113.112C243.904 108.081 244.424 103.406 244.896 99.1644C244.994 98.2828 245.09 97.42 245.178 96.5767L245.295 95.472H218.76L219.013 96.678C220.019 101.455 220.528 108.038 220.528 113.112L220.528 186.2C220.528 191.398 219.892 199.92 219.005 205.367L218.816 206.528H245.429L245.306 205.418C244.667 199.666 243.904 189.599 243.904 186.2V154.774C257.229 159.5 274.016 166.1 286.479 172.498L287.45 172.996L297.047 149.488L296.207 149.078C285.517 143.849 261.187 134.987 243.904 129.911Z" fill="white"/>
</g>
<mask id="mask5_214_30546" style="mask-type:alpha" maskUnits="userSpaceOnUse" x="0" y="40" width="73" height="40">
<path d="M0 40H73V80H0V40Z" fill="#D9D9D9"/>
</mask>
<g mask="url(#mask5_214_30546)">
<path fill-rule="evenodd" clip-rule="evenodd" d="M101.24 14.3456L101.693 15.0161C104.929 19.8067 109.433 28.1745 111.737 32.6547L112.231 33.6147L98.2209 39.5137L97.798 38.6879C97.4625 38.0328 97.1121 37.3443 96.7494 36.6312C94.1842 31.5894 90.9952 25.3215 88.0098 21.0092L87.2982 19.9814L101.24 14.3456ZM116.979 8.20338L117.433 8.86731C120.794 13.7791 125.425 22.013 127.614 26.3928L128.09 27.3438L114.206 33.252L113.789 32.3984C111.238 27.1685 107.17 19.6733 103.761 14.8752L103.028 13.8433L116.979 8.20338ZM21.8507 78.065L21.8517 78.0623C27.5847 63.284 32.1659 46.0962 33.692 29.0548L33.7923 27.9351L58.5965 33.1202L58.3067 34.1507C57.1612 38.2236 55.3779 45.8694 54.8732 48.7713L54.8711 48.7835C53.0671 58.4476 48.3151 75.2662 44.3355 86.5633C39.8267 99.4453 31.8505 114.886 25.3974 124.178L24.935 124.844L1.10753 114.812L1.89392 113.784C9.76983 103.495 17.4037 89.627 21.8507 78.065ZM43.392 86.232C47.36 74.968 52.096 58.2 53.888 48.6C54.3621 45.8741 55.9335 39.088 57.0782 34.8461C57.1698 34.5066 57.2587 34.1835 57.344 33.88L34.688 29.144C34.6581 29.478 34.627 29.812 34.5948 30.1461C32.9721 46.9681 28.4318 63.8651 22.784 78.424C18.4214 89.7667 11.0244 103.294 3.31143 113.569C3.10383 113.846 2.896 114.12 2.688 114.392L24.576 123.608C30.976 114.392 38.912 99.032 43.392 86.232ZM85.0745 77.3529L85.0718 77.3456C80.3491 63.8153 71.9218 44.2837 66.5781 34.4868L65.9991 33.4254L88.6788 26.1455L89.0728 26.8786C94.6043 37.1697 103.709 58.0764 108.197 69.745C112.434 80.7873 119.229 101.685 122.822 115.028L123.068 115.945L97.9551 124.131L97.7127 123.061C94.0034 106.689 90.0459 91.2475 85.0745 77.3529ZM100.864 15.576C103.862 20.0135 107.984 27.5974 110.387 32.221C110.549 32.532 110.703 32.8296 110.848 33.112L98.688 38.232C98.3548 37.5815 98.0059 36.8957 97.6437 36.1837C95.2447 31.4675 92.2623 25.6047 89.4049 21.287C89.2133 20.9974 89.0223 20.7148 88.832 20.44L100.864 15.576ZM116.608 9.43199C119.72 13.9803 123.951 21.4387 126.267 25.9461C126.427 26.259 126.579 26.5576 126.72 26.84L114.688 31.96C112.271 27.0059 108.486 19.9986 105.162 15.1376C104.965 14.8492 104.77 14.5684 104.576 14.296L116.608 9.43199ZM86.016 77.016C81.4194 63.8474 73.3262 45.0118 67.9386 34.9033C67.7752 34.5967 67.6143 34.2981 67.456 34.008L88.192 27.352C93.696 37.592 102.784 58.456 107.264 70.104C111.488 81.112 118.272 101.976 121.856 115.288L98.688 122.84C98.614 122.513 98.5398 122.187 98.4656 121.861C94.8173 105.839 90.9084 90.6897 86.016 77.016Z" fill="white"/>
</g>
<mask id="mask6_214_30546" style="mask-type:alpha" maskUnits="userSpaceOnUse" x="0" y="0" width="73" height="40">
<path d="M0 0H73V40H0V0Z" fill="#D9D9D9"/>
</mask>
<g mask="url(#mask6_214_30546)">
<path fill-rule="evenodd" clip-rule="evenodd" d="M62.262 27.0358C61.933 27.1203 61.603 27.2043 61.272 27.288L70.872 46.872C85.3485 42.6961 100.363 36.4346 113.136 30.0385C113.471 29.8708 113.804 29.703 114.136 29.5351L114.136 67.096C114.136 72.7156 113.708 80.6911 113.243 84.656C113.199 85.026 113.156 85.361 113.112 85.656H137.688C137.603 85.3575 137.523 85.0227 137.448 84.656C136.623 80.6196 136.408 72.7283 136.408 67.096V16.6456C136.741 16.4245 137.075 16.202 137.408 15.9782C148.988 8.20579 160.673 -1.13457 169.867 -10.0301C170.108 -10.263 170.347 -10.4956 170.584 -10.7279C170.584 -10.7279 170.584 -10.7279 170.584 -10.7279L153.816 -26.728C153.606 -26.475 153.391 -26.2191 153.172 -25.9607C144.941 -16.2848 129.8 -2.96957 117.208 4.75999C103.076 13.3403 85.0874 21.1743 62.262 27.0358ZM116.687 3.9062C102.445 12.5532 84.2352 20.4527 61.027 26.3185L59.8312 26.6207L70.3433 48.0653L71.1492 47.8328C85.5224 43.6867 100.413 37.4986 113.136 31.1563L113.136 67.096C113.136 73.2176 112.625 82.1227 112.123 85.5094L111.953 86.656H139.014L138.65 85.3813C138.172 83.7107 137.855 80.712 137.662 77.28C137.472 73.8809 137.408 70.1568 137.408 67.096V17.1814C149.524 9.09972 161.795 -0.724495 171.284 -10.0134L172.023 -10.7372L153.73 -28.1918L153.046 -27.3662C145.053 -17.7232 129.521 -3.97268 116.687 3.9062Z" fill="white"/>
<path fill-rule="evenodd" clip-rule="evenodd" d="M28.2395 -25.6544L28.6926 -24.9839C31.9294 -20.1933 36.4332 -11.8255 38.7373 -7.34535L39.231 -6.3853L25.2209 -0.48632L24.798 -1.31213C24.4625 -1.96716 24.1121 -2.6557 23.7494 -3.36877C21.1842 -8.41059 17.9952 -14.6785 15.0098 -18.9908L14.2982 -20.0186L28.2395 -25.6544ZM43.979 -31.7966L44.4333 -31.1327C47.794 -26.2209 52.4245 -17.987 54.6144 -13.6072L55.09 -12.6562L41.2056 -6.74796L40.7892 -7.60158C38.2381 -12.8315 34.17 -20.3267 30.7608 -25.1248L30.0276 -26.1567L43.979 -31.7966ZM-51.1493 38.065L-51.1483 38.0623C-45.4153 23.284 -40.8341 6.09622 -39.308 -10.9452L-39.2077 -12.0649L-14.4035 -6.8798L-14.6933 -5.84926C-15.8388 -1.77644 -17.6221 5.86936 -18.1268 8.77134L-18.1289 8.78351C-19.9329 18.4476 -24.6849 35.2662 -28.6645 46.5633C-33.1733 59.4453 -41.1495 74.8859 -47.6026 84.1784L-48.065 84.8442L-71.8925 74.8116L-71.1061 73.7842C-63.2302 63.4947 -55.5963 49.627 -51.1493 38.065ZM-29.608 46.232C-25.64 34.968 -20.904 18.2 -19.112 8.6C-18.6379 5.87411 -17.0665 -0.91198 -15.9218 -5.15395C-15.8302 -5.49339 -15.7413 -5.81653 -15.656 -6.12L-38.312 -10.856C-38.3419 -10.522 -38.373 -10.188 -38.4052 -9.85387C-40.0279 6.96806 -44.5682 23.8651 -50.216 38.424C-54.5786 49.7667 -61.9756 63.2942 -69.6886 73.5695C-69.8962 73.846 -70.104 74.1203 -70.312 74.392L-48.424 83.608C-42.024 74.392 -34.088 59.032 -29.608 46.232ZM12.0745 37.3529L12.0718 37.3456C7.34905 23.8153 -1.07816 4.28371 -6.4219 -5.51315L-7.00088 -6.57462L15.6788 -13.8545L16.0728 -13.1214C21.6043 -2.83029 30.7094 18.0764 35.1973 29.745C39.4345 40.7873 46.2293 61.685 49.8216 75.028L50.0684 75.9446L24.9551 84.1307L24.7127 83.061C21.0034 66.689 17.0459 51.2475 12.0745 37.3529ZM27.864 -24.424C30.8623 -19.9865 34.9843 -12.4026 37.3873 -7.77903C37.5489 -7.46801 37.7028 -7.17038 37.848 -6.888L25.688 -1.76801C25.3548 -2.41848 25.0059 -3.10435 24.6437 -3.81635C22.2447 -8.53249 19.2623 -14.3953 16.4049 -18.713C16.2133 -19.0026 16.0223 -19.2852 15.832 -19.56L27.864 -24.424ZM43.608 -30.568C46.72 -26.0197 50.9513 -18.5613 53.2666 -14.0539C53.4273 -13.741 53.5788 -13.4424 53.72 -13.16L41.688 -8.04C39.2714 -12.9941 35.486 -20.0014 32.1623 -24.8624C31.9651 -25.1508 31.7696 -25.4316 31.576 -25.704L43.608 -30.568ZM13.016 37.016C8.41943 23.8474 0.326187 5.01185 -5.06139 -5.09666C-5.22481 -5.40327 -5.38573 -5.70185 -5.544 -5.992L15.192 -12.648C20.696 -2.408 29.784 18.456 34.264 30.104C38.488 41.112 45.272 61.976 48.856 75.288L25.688 82.84C25.614 82.5132 25.5398 82.1868 25.4656 81.8607C21.8173 65.8388 17.9084 50.6897 13.016 37.016Z" fill="white"/>
</g>
<mask id="mask7_214_30546" style="mask-type:alpha" maskUnits="userSpaceOnUse" x="87" y="80" width="59" height="40">
<path d="M87 80H146V120H87V80Z" fill="#D9D9D9"/>
</mask>
<g mask="url(#mask7_214_30546)">
<path fill-rule="evenodd" clip-rule="evenodd" d="M62.262 107.036C61.933 107.12 61.603 107.204 61.272 107.288L70.872 126.872C85.3485 122.696 100.363 116.435 113.136 110.038C113.471 109.871 113.804 109.703 114.136 109.535L114.136 147.096C114.136 152.716 113.708 160.691 113.243 164.656C113.199 165.026 113.156 165.361 113.112 165.656H137.688C137.603 165.358 137.523 165.023 137.448 164.656C136.623 160.62 136.408 152.728 136.408 147.096V96.6456C136.741 96.4245 137.075 96.202 137.408 95.9782C148.988 88.2058 160.673 78.8654 169.867 69.9699C170.108 69.737 170.347 69.5044 170.584 69.2721C170.584 69.2721 170.584 69.2721 170.584 69.2721L153.816 53.272C153.606 53.525 153.391 53.7809 153.172 54.0393C144.941 63.7152 129.8 77.0304 117.208 84.76C103.076 93.3403 85.0874 101.174 62.262 107.036ZM116.687 83.9062C102.445 92.5532 84.2352 100.453 61.027 106.318L59.8312 106.621L70.3433 128.065L71.1492 127.833C85.5224 123.687 100.413 117.499 113.136 111.156L113.136 147.096C113.136 153.218 112.625 162.123 112.123 165.509L111.953 166.656H139.014L138.65 165.381C138.172 163.711 137.855 160.712 137.662 157.28C137.472 153.881 137.408 150.157 137.408 147.096V97.1814C149.524 89.0997 161.795 79.2755 171.284 69.9866L172.023 69.2628L153.73 51.8082L153.046 52.6338C145.053 62.2768 129.521 76.0273 116.687 83.9062Z" fill="white"/>
</g>
<mask id="mask8_214_30546" style="mask-type:alpha" maskUnits="userSpaceOnUse" x="219" y="40" width="73" height="40">
<path d="M219 40H292V80H219V40Z" fill="#D9D9D9"/>
</mask>
<g mask="url(#mask8_214_30546)">
<path fill-rule="evenodd" clip-rule="evenodd" d="M294.528 33.112V106.2C294.528 111.14 293.961 119.028 293.147 124.528C293.096 124.871 293.045 125.205 292.992 125.528H317.312C317.276 125.208 317.24 124.874 317.204 124.528C316.589 118.663 315.904 109.464 315.904 106.2V73.3604C316.235 73.4767 316.568 73.5943 316.904 73.7131C329.99 78.344 346.518 84.8174 359.042 91.1524C359.342 91.3044 359.64 91.4562 359.936 91.608L368.768 69.976C358.2 64.8069 334.128 56.0298 316.904 50.9531C316.568 50.854 316.235 50.7564 315.904 50.6602V33.112C315.904 28.0206 316.431 23.2808 316.903 19.0383C316.962 18.5083 317.021 17.9861 317.077 17.472C317.113 17.1352 317.149 16.8018 317.184 16.472L292.992 16.472C293.061 16.7976 293.127 17.1313 293.191 17.472C294.082 22.2203 294.528 28.3348 294.528 33.112ZM316.904 49.9107V33.112C316.904 28.0814 317.424 23.4058 317.896 19.1644C317.994 18.2828 318.09 17.42 318.179 16.5767L318.295 15.472L291.76 15.472L292.013 16.678C293.019 21.4548 293.528 28.038 293.528 33.112V106.2C293.528 111.398 292.892 119.92 292.005 125.367L291.816 126.528H318.429L318.306 125.418C317.667 119.666 316.904 109.599 316.904 106.2V74.774C330.229 79.5004 347.016 86.1005 359.479 92.4977L360.45 92.9956L370.047 69.4885L369.207 69.0777C358.517 63.8488 334.187 54.9866 316.904 49.9107Z" fill="white"/>
<path fill-rule="evenodd" clip-rule="evenodd" d="M135.262 67.0358C134.933 67.1203 134.603 67.2043 134.272 67.288L143.872 86.872C158.349 82.6961 173.363 76.4346 186.136 70.0385C186.471 69.8708 186.804 69.703 187.136 69.5351V107.096C187.136 112.716 186.708 120.691 186.243 124.656C186.199 125.026 186.156 125.361 186.112 125.656H210.688C210.603 125.358 210.523 125.023 210.448 124.656C209.623 120.62 209.408 112.728 209.408 107.096V56.6456C209.741 56.4245 210.075 56.202 210.408 55.9782C221.988 48.2058 233.673 38.8654 242.867 29.9699C243.108 29.737 243.347 29.5044 243.584 29.2721C243.584 29.2721 243.584 29.2721 243.584 29.2721L226.816 13.272C226.606 13.525 226.391 13.7809 226.172 14.0393C217.941 23.7152 202.8 37.0304 190.208 44.76C176.076 53.3403 158.087 61.1743 135.262 67.0358ZM189.687 43.9062C175.445 52.5532 157.235 60.4527 134.027 66.3185L132.831 66.6207L143.343 88.0653L144.149 87.8328C158.522 83.6867 173.413 77.4986 186.136 71.1563V107.096C186.136 113.218 185.625 122.123 185.123 125.509L184.953 126.656H212.014L211.65 125.381C211.172 123.711 210.855 120.712 210.662 117.28C210.472 113.881 210.408 110.157 210.408 107.096V57.1814C222.524 49.0997 234.795 39.2755 244.284 29.9866L245.023 29.2628L226.73 11.8082L226.046 12.6338C218.053 22.2768 202.521 36.0273 189.687 43.9062Z" fill="white"/>
</g>
<mask id="mask9_214_30546" style="mask-type:alpha" maskUnits="userSpaceOnUse" x="292" y="40" width="73" height="40">
<path d="M292 40H365V80H292V40Z" fill="#D9D9D9"/>
</mask>
<g mask="url(#mask9_214_30546)">
<path fill-rule="evenodd" clip-rule="evenodd" d="M294.528 33.112V106.2C294.528 111.14 293.961 119.028 293.147 124.528C293.096 124.871 293.045 125.205 292.992 125.528H317.312C317.276 125.208 317.24 124.874 317.204 124.528C316.589 118.663 315.904 109.464 315.904 106.2V73.3604C316.235 73.4767 316.568 73.5943 316.904 73.7131C329.99 78.344 346.518 84.8174 359.042 91.1524C359.342 91.3044 359.64 91.4562 359.936 91.608L368.768 69.976C358.2 64.8069 334.128 56.0298 316.904 50.9531C316.568 50.854 316.235 50.7564 315.904 50.6602V33.112C315.904 28.0206 316.431 23.2808 316.903 19.0383C316.962 18.5083 317.021 17.9861 317.077 17.472C317.113 17.1352 317.149 16.8018 317.184 16.472L292.992 16.472C293.061 16.7976 293.127 17.1313 293.191 17.472C294.082 22.2203 294.528 28.3348 294.528 33.112ZM316.904 49.9107V33.112C316.904 28.0814 317.424 23.4058 317.896 19.1644C317.994 18.2828 318.09 17.42 318.178 16.5767L318.295 15.472L291.76 15.472L292.013 16.678C293.019 21.4548 293.528 28.038 293.528 33.112V106.2C293.528 111.398 292.892 119.92 292.005 125.367L291.816 126.528H318.429L318.306 125.418C317.667 119.666 316.904 109.599 316.904 106.2V74.774C330.229 79.5004 347.016 86.1005 359.479 92.4977L360.45 92.9956L370.047 69.4885L369.207 69.0777C358.517 63.8488 334.187 54.9866 316.904 49.9107Z" fill="white"/>
</g>
<mask id="mask10_214_30546" style="mask-type:alpha" maskUnits="userSpaceOnUse" x="292" y="80" width="73" height="40">
<path d="M292 80H365V120H292V80Z" fill="#D9D9D9"/>
</mask>
<g mask="url(#mask10_214_30546)">
<path fill-rule="evenodd" clip-rule="evenodd" d="M393.24 14.3456L393.693 15.0161C396.929 19.8067 401.433 28.1745 403.737 32.6547L404.231 33.6147L390.221 39.5137L389.798 38.6879C389.462 38.0328 389.112 37.3443 388.749 36.6312C386.184 31.5894 382.995 25.3215 380.01 21.0092L379.298 19.9814L393.24 14.3456ZM408.979 8.20338L409.433 8.86731C412.794 13.7791 417.425 22.013 419.614 26.3928L420.09 27.3438L406.206 33.252L405.789 32.3984C403.238 27.1685 399.17 19.6733 395.761 14.8752L395.028 13.8433L408.979 8.20338ZM313.851 78.065L313.852 78.0623C319.585 63.284 324.166 46.0962 325.692 29.0548L325.792 27.9351L350.596 33.1202L350.307 34.1507C349.161 38.2236 347.378 45.8694 346.873 48.7713L346.871 48.7835C345.067 58.4476 340.315 75.2662 336.336 86.5633C331.827 99.4453 323.85 114.886 317.397 124.178L316.935 124.844L293.108 114.812L293.894 113.784C301.77 103.495 309.404 89.627 313.851 78.065ZM335.392 86.232C339.36 74.968 344.096 58.2 345.888 48.6C346.362 45.8741 347.933 39.088 349.078 34.8461C349.17 34.5066 349.259 34.1835 349.344 33.88L326.688 29.144C326.658 29.478 326.627 29.812 326.595 30.1461C324.972 46.9681 320.432 63.8651 314.784 78.424C310.421 89.7667 303.024 103.294 295.311 113.569C295.104 113.846 294.896 114.12 294.688 114.392L316.576 123.608C322.976 114.392 330.912 99.032 335.392 86.232ZM377.074 77.3529L377.072 77.3456C372.349 63.8153 363.922 44.2837 358.578 34.4868L357.999 33.4254L380.679 26.1455L381.073 26.8786C386.604 37.1697 395.709 58.0764 400.197 69.745C404.434 80.7873 411.229 101.685 414.822 115.028L415.068 115.945L389.955 124.131L389.713 123.061C386.003 106.689 382.046 91.2475 377.074 77.3529ZM392.864 15.576C395.862 20.0135 399.984 27.5974 402.387 32.221C402.549 32.532 402.703 32.8296 402.848 33.112L390.688 38.232C390.355 37.5815 390.006 36.8957 389.644 36.1837C387.245 31.4675 384.262 25.6047 381.405 21.287C381.213 20.9974 381.022 20.7148 380.832 20.44L392.864 15.576ZM408.608 9.43199C411.72 13.9803 415.951 21.4387 418.267 25.9461C418.427 26.259 418.579 26.5576 418.72 26.84L406.688 31.96C404.271 27.0059 400.486 19.9986 397.162 15.1376C396.965 14.8492 396.77 14.5684 396.576 14.296L408.608 9.43199ZM378.016 77.016C373.419 63.8474 365.326 45.0118 359.939 34.9033C359.775 34.5967 359.614 34.2981 359.456 34.008L380.192 27.352C385.696 37.592 394.784 58.456 399.264 70.104C403.488 81.112 410.272 101.976 413.856 115.288L390.688 122.84C390.614 122.513 390.54 122.187 390.466 121.861C386.817 105.839 382.908 90.6897 378.016 77.016Z" fill="white"/>
</g>
<mask id="mask11_214_30546" style="mask-type:alpha" maskUnits="userSpaceOnUse" x="146" y="80" width="73" height="40">
<path d="M146 80H219V120H146V80Z" fill="#D9D9D9"/>
</mask>
<g mask="url(#mask11_214_30546)">
<path fill-rule="evenodd" clip-rule="evenodd" d="M208.262 67.0358C207.933 67.1203 207.603 67.2043 207.272 67.288L216.872 86.872C231.349 82.6961 246.363 76.4346 259.136 70.0385C259.471 69.8708 259.804 69.703 260.136 69.5351V107.096C260.136 112.716 259.708 120.691 259.243 124.656C259.199 125.026 259.156 125.361 259.112 125.656H283.688C283.603 125.358 283.523 125.023 283.448 124.656C282.623 120.62 282.408 112.728 282.408 107.096V56.6456C282.741 56.4245 283.075 56.202 283.408 55.9782C294.988 48.2058 306.673 38.8654 315.867 29.9699C316.108 29.737 316.347 29.5044 316.584 29.2721C316.584 29.2721 316.584 29.2721 316.584 29.2721L299.816 13.272C299.606 13.525 299.391 13.7809 299.172 14.0393C290.941 23.7152 275.8 37.0304 263.208 44.76C249.076 53.3403 231.087 61.1743 208.262 67.0358ZM262.687 43.9062C248.445 52.5532 230.235 60.4527 207.027 66.3185L205.831 66.6207L216.343 88.0653L217.149 87.8328C231.522 83.6867 246.413 77.4986 259.136 71.1563V107.096C259.136 113.218 258.625 122.123 258.123 125.509L257.953 126.656H285.014L284.65 125.381C284.172 123.711 283.855 120.712 283.662 117.28C283.472 113.881 283.408 110.157 283.408 107.096V57.1814C295.524 49.0997 307.795 39.2755 317.284 29.9866L318.023 29.2628L299.73 11.8082L299.046 12.6338C291.053 22.2768 275.521 36.0273 262.687 43.9062Z" fill="white"/>
<path fill-rule="evenodd" clip-rule="evenodd" d="M174.24 14.3456L174.693 15.0161C177.929 19.8067 182.433 28.1745 184.737 32.6547L185.231 33.6147L171.221 39.5137L170.798 38.6879C170.462 38.0328 170.112 37.3443 169.749 36.6312C167.184 31.5894 163.995 25.3215 161.01 21.0092L160.298 19.9814L174.24 14.3456ZM189.979 8.20338L190.433 8.86731C193.794 13.7791 198.425 22.013 200.614 26.3928L201.09 27.3438L187.206 33.252L186.789 32.3984C184.238 27.1685 180.17 19.6733 176.761 14.8752L176.028 13.8433L189.979 8.20338ZM94.8507 78.065L94.8517 78.0623C100.585 63.284 105.166 46.0962 106.692 29.0548L106.792 27.9351L131.596 33.1202L131.307 34.1507C130.161 38.2236 128.378 45.8694 127.873 48.7713L127.871 48.7835C126.067 58.4476 121.315 75.2662 117.336 86.5633C112.827 99.4453 104.85 114.886 98.3974 124.178L97.935 124.844L74.1075 114.812L74.8939 113.784C82.7698 103.495 90.4037 89.627 94.8507 78.065ZM116.392 86.232C120.36 74.968 125.096 58.2 126.888 48.6C127.362 45.8741 128.933 39.088 130.078 34.8461C130.17 34.5066 130.259 34.1835 130.344 33.88L107.688 29.144C107.658 29.478 107.627 29.812 107.595 30.1461C105.972 46.9681 101.432 63.8651 95.784 78.424C91.4214 89.7667 84.0244 103.294 76.3114 113.569C76.1038 113.846 75.896 114.12 75.688 114.392L97.576 123.608C103.976 114.392 111.912 99.032 116.392 86.232ZM158.074 77.3529L158.072 77.3456C153.349 63.8153 144.922 44.2837 139.578 34.4868L138.999 33.4254L161.679 26.1455L162.073 26.8786C167.604 37.1697 176.709 58.0764 181.197 69.745C185.434 80.7873 192.229 101.685 195.822 115.028L196.068 115.945L170.955 124.131L170.713 123.061C167.003 106.689 163.046 91.2475 158.074 77.3529ZM173.864 15.576C176.862 20.0135 180.984 27.5974 183.387 32.221C183.549 32.532 183.703 32.8296 183.848 33.112L171.688 38.232C171.355 37.5815 171.006 36.8957 170.644 36.1837C168.245 31.4675 165.262 25.6047 162.405 21.287C162.213 20.9974 162.022 20.7148 161.832 20.44L173.864 15.576ZM189.608 9.43199C192.72 13.9803 196.951 21.4387 199.267 25.9461C199.427 26.259 199.579 26.5576 199.72 26.84L187.688 31.96C185.271 27.0059 181.486 19.9986 178.162 15.1376C177.965 14.8492 177.77 14.5684 177.576 14.296L189.608 9.43199ZM159.016 77.016C154.419 63.8474 146.326 45.0118 140.939 34.9033C140.775 34.5967 140.614 34.2981 140.456 34.008L161.192 27.352C166.696 37.592 175.784 58.456 180.264 70.104C184.488 81.112 191.272 101.976 194.856 115.288L171.688 122.84C171.614 122.513 171.54 122.187 171.466 121.861C167.817 105.839 163.908 90.6897 159.016 77.016Z" fill="white"/>
</g>
<mask id="mask12_214_30546" style="mask-type:alpha" maskUnits="userSpaceOnUse" x="146" y="40" width="73" height="40">
<path d="M146 40H219V80H146V40Z" fill="#D9D9D9"/>
</mask>
<g mask="url(#mask12_214_30546)">
<path fill-rule="evenodd" clip-rule="evenodd" d="M135.262 27.0358C134.933 27.1203 134.603 27.2043 134.272 27.288L143.872 46.872C158.349 42.6961 173.363 36.4346 186.136 30.0385C186.471 29.8708 186.804 29.703 187.136 29.5351V67.096C187.136 72.7156 186.708 80.6911 186.243 84.656C186.199 85.026 186.156 85.361 186.112 85.656H210.688C210.603 85.3575 210.523 85.0227 210.448 84.656C209.623 80.6196 209.408 72.7283 209.408 67.096V16.6456C209.741 16.4245 210.075 16.202 210.408 15.9782C221.988 8.20579 233.673 -1.13457 242.867 -10.0301C243.108 -10.263 243.347 -10.4956 243.584 -10.7279C243.584 -10.7279 243.584 -10.7279 243.584 -10.7279L226.816 -26.728C226.606 -26.475 226.391 -26.2191 226.172 -25.9607C217.941 -16.2848 202.8 -2.96957 190.208 4.75999C176.076 13.3403 158.087 21.1743 135.262 27.0358ZM189.687 3.9062C175.445 12.5532 157.235 20.4527 134.027 26.3185L132.831 26.6207L143.343 48.0653L144.149 47.8328C158.522 43.6867 173.413 37.4986 186.136 31.1563V67.096C186.136 73.2176 185.625 82.1227 185.123 85.5094L184.953 86.656H212.014L211.65 85.3813C211.172 83.7107 210.855 80.712 210.662 77.28C210.472 73.8809 210.408 70.1568 210.408 67.096V17.1814C222.524 9.09972 234.795 -0.724495 244.284 -10.0134L245.023 -10.7372L226.73 -28.1918L226.046 -27.3662C218.053 -17.7232 202.521 -3.97268 189.687 3.9062Z" fill="white"/>
</g>
<mask id="mask13_214_30546" style="mask-type:alpha" maskUnits="userSpaceOnUse" x="292" y="0" width="73" height="40">
<path d="M292 0H365V40H292V0Z" fill="#D9D9D9"/>
</mask>
<g mask="url(#mask13_214_30546)">
<path fill-rule="evenodd" clip-rule="evenodd" d="M294.528 -46.888V26.2C294.528 31.1399 293.961 39.0284 293.147 44.528C293.096 44.8711 293.045 45.2048 292.992 45.528H317.312C317.276 45.2075 317.24 44.8735 317.204 44.528C316.589 38.6633 315.904 29.4637 315.904 26.2V-6.63961C316.235 -6.52328 316.568 -6.40572 316.904 -6.28693C329.99 -1.65602 346.518 4.81741 359.042 11.1524C359.342 11.3044 359.64 11.4562 359.936 11.608L368.768 -10.024C358.2 -15.1931 334.128 -23.9702 316.904 -29.0469C316.568 -29.146 316.235 -29.2436 315.904 -29.3398V-46.888C315.904 -51.9794 316.431 -56.7192 316.903 -60.9617C316.962 -61.4917 317.021 -62.0139 317.077 -62.528C317.113 -62.8648 317.149 -63.1982 317.184 -63.528L292.992 -63.528C293.061 -63.2024 293.127 -62.8687 293.191 -62.528C294.082 -57.7797 294.528 -51.6652 294.528 -46.888ZM316.904 -30.0893V-46.888C316.904 -51.9187 317.424 -56.5942 317.896 -60.8357C317.994 -61.7172 318.09 -62.58 318.178 -63.4233L318.295 -64.528H291.76L292.013 -63.322C293.019 -58.5452 293.528 -51.962 293.528 -46.888V26.2C293.528 31.3981 292.892 39.9202 292.005 45.3673L291.816 46.528H318.429L318.306 45.4176C317.667 39.6657 316.904 29.5986 316.904 26.2V-5.22604C330.229 -0.499565 347.016 6.10046 359.479 12.4976L360.45 12.9956L370.047 -10.5115L369.207 -10.9223C358.517 -16.1512 334.187 -25.0134 316.904 -30.0893Z" fill="white"/>
</g>
</svg>
