<svg width="72" height="34" viewBox="0 0 72 34" fill="none" xmlns="http://www.w3.org/2000/svg">
<path d="M14.848 11.752C18.124 12.22 19.636 15.028 19.636 17.872C19.636 21.256 17.44 25 11.608 25H0.844V0.196H10.888C15.424 0.196 18.34 2.932 18.34 6.604C18.34 8.332 17.692 10.924 14.848 11.752ZM12.688 7.504C12.688 6.244 12.04 5.128 10.492 5.128H6.496V9.88H10.456C11.788 9.88 12.688 9.016 12.688 7.504ZM6.496 20.068H10.924C12.94 20.068 13.948 18.7 13.948 17.296C13.948 16 13.048 14.524 10.924 14.524H6.496V20.068ZM30.2484 16.9L33.6684 8.188H39.3924L29.0244 33.28H23.3364L27.4764 22.984L20.8524 8.188H26.7564L30.2484 16.9ZM48.6318 8.188H52.1598V12.22H48.6318V25H43.3038V12.22H40.2438V8.188H43.3038V2.176H48.6318V8.188ZM71.645 16.252C71.645 16.72 71.609 17.332 71.573 18.16H59.261C59.765 19.78 61.169 20.788 63.185 20.788C64.769 20.788 66.389 20.068 67.433 19.06L70.169 22.516C68.513 24.316 65.633 25.432 62.825 25.432C57.497 25.432 53.753 21.76 53.753 16.648C53.753 11.176 57.965 7.756 62.789 7.756C67.613 7.756 71.645 11.14 71.645 16.252ZM59.225 15.028H66.353C66.281 13.372 64.805 12.256 62.897 12.256C61.313 12.256 59.765 13.012 59.225 15.028Z" fill="white"/>
</svg>
